<?xml version="1.0" encoding="UTF-8" standalone="no"?>
<!-- Created with Inkscape (http://www.inkscape.org/) -->

<svg
   xmlns:dc="http://purl.org/dc/elements/1.1/"
   xmlns:cc="http://creativecommons.org/ns#"
   xmlns:rdf="http://www.w3.org/1999/02/22-rdf-syntax-ns#"
   xmlns:svg="http://www.w3.org/2000/svg"
   xmlns="http://www.w3.org/2000/svg"
   version="1.1"
   width="92"
   height="92"
   viewBox="0 0 92 92"
   id="Layer_1"
   xml:space="preserve"><metadata
     id="metadata8"><rdf:RDF><cc:Work
         rdf:about=""><dc:format>image/svg+xml</dc:format><dc:type
           rdf:resource="http://purl.org/dc/dcmitype/StillImage" /><dc:title></dc:title></cc:Work></rdf:RDF></metadata><defs
     id="defs6"><filter
       x="0"
       y="0"
       width="1"
       height="1"
       color-interpolation-filters="sRGB"
       id="filter2985"><feColorMatrix
         result="fbSourceGraphic"
         values="1"
         type="saturate"
         id="feColorMatrix2987" /><feColorMatrix
         values="-1 0 0 0 1 0 -1 0 0 1 0 0 -1 0 1 0 0 0 1 0 "
         in="fbSourceGraphic"
         id="feColorMatrix2989" /></filter></defs><path
     d="m 89.181408,78.299072 c 3.146823,3.175079 3.146823,8.114092 0,11.289171 -1.573412,1.58754 -3.49647,2.293113 -5.594352,2.293113 -2.097883,0 -4.020941,-0.705573 -5.594353,-2.293113 L 46,57.308269 14.007297,89.588243 c -1.573412,1.58754 -3.49647,2.293113 -5.5943525,2.293113 -2.0978822,0 -4.0209409,-0.705573 -5.5943525,-2.293113 -3.14682324,-3.175079 -3.14682324,-8.114092 0,-11.289171 L 34.811295,46.019098 2.818592,13.739125 c -3.14682324,-3.17508 -3.14682324,-8.114092 0,-11.2891714 3.1468233,-3.17507938 8.041882,-3.17507938 11.188705,0 L 46,34.729927 77.992703,2.4499536 c 3.146823,-3.17507938 8.041882,-3.17507938 11.188705,0 3.146823,3.1750794 3.146823,8.1140914 0,11.2891714 L 57.188705,46.019098 89.181408,78.299072 z"
     id="XMLID_732_"
     style="filter:url(#filter2985)" /></svg>